<?xml version="1.0" encoding="utf-8"?>
<!-- Generator: Adobe Illustrator 18.0.0, SVG Export Plug-In . SVG Version: 6.00 Build 0)  -->
<!DOCTYPE svg PUBLIC "-//W3C//DTD SVG 1.1//EN" "http://www.w3.org/Graphics/SVG/1.1/DTD/svg11.dtd">
<svg version="1.1" xmlns="http://www.w3.org/2000/svg" xmlns:xlink="http://www.w3.org/1999/xlink" x="0px" y="0px"
	 viewBox="0 0 53.2201653 53.955574" style="enable-background:new 0 0 53.2201653 53.955574;" xml:space="preserve">
<g id="Слой_2">
</g>
<g id="Слой_1">
	<path style="fill:#FFFFFF;" d="M17.146204,53.955574c1.4038067-0.3131561,2.9653606-0.5886269,4.4857712-1.0126724
		c8.8586349-2.4706802,15.7839718-7.8201523,21.8242817-14.5929451c4.8246765-5.4097443,7.9147377-11.6737385,9.4648972-18.6736221
		c1.0419846-4.7051954-0.7206154-8.78403-4.022625-12.0848198c-1.5998268-1.5992341-3.9280167-1.7672558-6.1181564-1.7614975
		c-0.4304237,0.0011315-0.9869728,0.6154008-1.2653885,1.0797334c-0.9776459,1.6304989-1.8356552,3.3326807-2.7849045,4.9810724
		c-0.7589722,1.3179741-1.5920372,2.5927639-2.3785515,3.8950338c-0.7693481,1.2738428-0.7613144,2.0291281,0.2945709,3.0720663
		c1.2025948,1.1878471,2.5437546,2.2330971,3.8004074,3.3674183c1.8183937,1.6413765,1.8357277,2.1072674,0.6366539,4.2600708
		c-2.8006744,5.0282669-6.2792625,9.4504356-11.1136513,12.6669579c-1.522747,1.0131454-3.0887337,1.968338-4.6837139,2.8624001
		c-1.4231701,0.7977524-1.9796371,0.6936607-3.0885983-0.5070953c-1.1955147-1.2944756-2.2783718-2.6946259-3.4874687-3.9753723
		c-1.398592-1.4814682-1.9757061-1.4730225-3.6893549-0.4486198c-2.5477514,1.5230141-5.1183939,3.0089378-7.7055798,4.4635544
		c-2.0189943,1.1351585-2.120409,1.5518036-1.8294468,3.8122177c0.6318474,4.9086304,4.2399454,6.6414566,8.2184315,7.9870033
		C14.7330894,53.6945801,15.864543,53.7385216,17.146204,53.955574z"/>
	<g>
		<g>
			<path style="fill:#FFFFFF;" d="M6.0931616,26.2829113C6.3338733,15.3360538,14.3519993,6.4136405,25.4759712,6.0383792
				c3.8584843-0.1301637,3.8711357-6.1305904,0-6C11.0520773,0.5249617,0.4069994,12.0105009,0.0931618,26.2829113
				C0.0080317,30.1543751,6.008213,30.1461239,6.0931616,26.2829113L6.0931616,26.2829113z"/>
		</g>
	</g>
	<g>
		<g>
			<path style="fill:#FFFFFF;" d="M16.4481125,26.2637424c0.1120224-5.1479836,4.0073948-9.1579189,9.173727-9.3236523
				c3.8592167-0.1238003,3.8712482-6.1241865,0-5.999999c-8.4606895,0.2714138-14.9894371,6.8546667-15.173727,15.3236513
				C10.3638678,30.1352024,16.3640442,30.127037,16.4481125,26.2637424L16.4481125,26.2637424z"/>
		</g>
	</g>
</g>
</svg>
